<svg version="1.1" id="Layer_1" xmlns="http://www.w3.org/2000/svg" xmlns:xlink="http://www.w3.org/1999/xlink" x="0px" y="0px"
	 viewBox="0 0 512 512" style="enable-background:new 0 0 512 512;" xml:space="preserve">
<style type="text/css">
	.st0{fill-rule:evenodd;clip-rule:evenodd;}
</style>
<g>
	<path class="st0" d="M384,32H128c-53,0-96,43-96,96v256c0,53,43,96,96,96h256c53,0,96-43,96-96V128C480,75,437,32,384,32z M128,0
		C57.3,0,0,57.3,0,128v256c0,70.7,57.3,128,128,128h256c70.7,0,128-57.3,128-128V128C512,57.3,454.7,0,384,0H128z"/>
	<path class="st0" d="M273.2,384H162V113.4h108.8c50.8,0,81.4,25.9,81.4,67.5c0,28.3-20.8,53.6-47.5,58.1v3.2
		c36.6,3.8,60.9,29.8,60.9,65.1C365.6,354.9,330.9,384,273.2,384z M204,149.1V228h49.9c37.1,0,56.5-13.7,56.5-39.4
		c0-25-18.2-39.6-49.3-39.6H204z M264.7,348.4H204v-87.2h58.3c39.5,0,60.4,14.8,60.4,43.1C322.7,333,302.6,348.4,264.7,348.4z"/>
</g>
</svg>