<svg version="1.0" xmlns="http://www.w3.org/2000/svg"
 width="225.000000pt" height="225.000000pt" viewBox="0 0 225.000000 225.000000"
 preserveAspectRatio="xMidYMid meet">
<metadata>
Created by potrace 1.16, written by Peter Selinger 2001-2019
</metadata>
<g transform="translate(0.000000,225.000000) scale(0.100000,-0.100000)"
fill="#000000" stroke="none">
<path d="M237 1809 l-47 -29 0 -375 0 -374 45 -26 45 -27 42 24 43 23 3 273
c1 149 5 272 8 272 3 0 108 -59 232 -132 125 -72 232 -131 237 -131 6 0 111
59 235 131 l225 131 3 -216 c1 -119 -1 -220 -5 -224 -5 -4 -131 -78 -280 -164
l-273 -157 0 -57 0 -57 326 -188 c252 -146 329 -187 343 -180 10 5 159 90 330
189 l311 180 0 262 0 262 -45 26 -45 27 -42 -24 -43 -23 -3 -210 -2 -211 -233
-133 c-127 -74 -237 -134 -243 -134 -13 0 -374 206 -374 213 0 3 106 66 235
140 l235 135 0 377 0 376 -49 31 -50 30 -275 -160 c-152 -87 -279 -159 -282
-159 -3 0 -121 67 -262 148 -141 82 -266 154 -277 160 -17 9 -29 5 -68 -19z"/>
<path d="M1923 1474 c-42 -26 -43 -27 -43 -83 0 -56 0 -56 44 -82 l43 -27 47
26 46 25 0 56 c0 56 0 56 -45 84 -25 15 -47 27 -48 27 -1 -1 -21 -12 -44 -26z"/>
</g>
</svg>