<svg version="1.0" xmlns="http://www.w3.org/2000/svg"
 width="872.000000pt" height="980.000000pt" viewBox="0 0 872.000000 980.000000"
 preserveAspectRatio="xMidYMid meet">
<metadata>
Created by potrace 1.16, written by Peter Selinger 2001-2019
</metadata>
<g transform="translate(0.000000,980.000000) scale(0.100000,-0.100000)"
fill="#000000" stroke="none">
<path d="M5840 9790 c-13 -8 -16 -93 -20 -632 -5 -586 -6 -623 -23 -626 -9 -2
-66 25 -125 59 -78 46 -117 63 -142 63 -27 -1 -127 -54 -435 -232 -220 -128
-408 -241 -417 -253 -17 -20 -18 -59 -18 -495 0 -312 4 -481 11 -496 13 -29
10 -27 460 -287 282 -163 374 -211 400 -211 26 0 127 54 438 234 255 148 409
243 417 258 11 18 13 251 14 1169 0 1078 -1 1148 -17 1168 -20 22 -495 291
-516 291 -6 0 -19 -5 -27 -10z m-191 -1856 c64 -37 128 -75 144 -86 l27 -19 0
-164 0 -163 -139 -81 c-77 -45 -146 -81 -153 -81 -7 0 -74 36 -148 79 l-135
79 -3 169 -2 169 137 81 c76 45 142 81 147 82 5 1 61 -29 125 -65z"/>
<path d="M440 8446 c-345 -199 -408 -238 -423 -267 -16 -32 -17 -75 -11 -649
4 -379 11 -620 17 -627 5 -7 17 -13 26 -13 26 0 505 278 521 303 12 18 16 80
18 337 3 272 6 317 19 333 27 29 241 147 268 147 27 0 241 -118 268 -147 13
-16 16 -61 19 -333 2 -215 7 -321 15 -335 12 -22 498 -305 523 -305 40 0 40 3
40 656 0 587 -1 633 -17 652 -30 34 -804 474 -843 478 -31 4 -84 -24 -440
-230z"/>
<path d="M2772 8441 c-217 -126 -404 -238 -415 -250 -22 -21 -22 -23 -22 -506
l0 -485 25 -24 c14 -14 202 -127 419 -252 283 -163 403 -228 425 -228 36 0
806 439 844 480 l22 25 0 484 0 484 -22 24 c-18 19 -675 404 -795 466 -53 27
-77 16 -481 -218z"/>
<path d="M7425 8439 c-220 -126 -410 -241 -422 -255 l-23 -25 0 -480 0 -481
28 -27 c44 -43 805 -471 838 -471 18 0 121 51 279 138 305 169 306 170 166
251 -36 21 -210 120 -386 221 -176 100 -328 191 -337 202 -15 17 -18 41 -18
165 0 79 4 153 10 163 9 16 265 170 284 170 4 0 70 -36 147 -81 l139 -81 0
-134 c0 -131 1 -134 25 -150 29 -19 25 -20 340 164 231 135 224 126 224 282 1
115 -11 170 -40 190 -90 63 -809 470 -829 470 -14 0 -198 -100 -425 -231z"/>
<path d="M7757 7825 l-78 -46 3 -97 3 -96 80 -47 80 -48 68 38 c108 60 107 58
107 153 0 46 -4 88 -8 94 -10 15 -148 94 -164 94 -7 0 -48 -20 -91 -45z"/>
<path d="M4200 6507 c-40 -13 -543 -298 -1295 -732 -1101 -636 -1237 -716
-1293 -772 -73 -72 -126 -173 -142 -273 -6 -42 -10 -555 -10 -1470 0 -1529 -2
-1476 57 -1597 17 -36 54 -84 98 -128 62 -62 108 -92 405 -262 535 -307 632
-342 909 -330 148 6 218 21 318 69 180 85 305 267 342 499 7 42 11 548 11
1497 0 1419 0 1432 -20 1452 -19 19 -33 20 -200 20 -167 0 -181 -1 -200 -20
-20 -20 -20 -33 -20 -1418 0 -1553 4 -1452 -68 -1547 -56 -74 -131 -109 -241
-113 -151 -6 -145 -9 -813 377 -80 47 -130 82 -137 98 -8 17 -11 426 -11 1418
l0 1394 22 25 c33 36 2418 1409 2448 1409 26 0 2408 -1368 2445 -1404 20 -19
20 -35 23 -1417 2 -1002 -1 -1405 -9 -1424 -9 -21 -200 -135 -977 -584 -1559
-900 -1464 -846 -1493 -840 -14 3 -166 88 -337 190 -175 105 -322 186 -335
186 -14 0 -65 -21 -113 -47 -49 -26 -138 -66 -199 -89 -122 -47 -141 -63 -110
-93 34 -33 866 -522 935 -549 87 -34 244 -36 333 -4 31 12 265 141 520 288
254 147 665 384 912 527 248 143 506 292 575 332 69 40 202 116 295 170 211
122 239 141 295 201 56 60 84 105 113 180 l22 59 3 1440 c2 1026 -1 1459 -8
1507 -24 138 -112 270 -233 346 -34 21 -595 346 -1247 723 -725 418 -1210 693
-1250 706 -91 31 -229 31 -320 0z"/>
<path d="M4950 4664 c-237 -20 -408 -55 -555 -113 -215 -87 -371 -221 -459
-397 -56 -114 -68 -165 -73 -324 -6 -177 9 -259 68 -380 114 -231 367 -367
819 -440 69 -11 227 -31 351 -45 408 -45 612 -88 749 -157 117 -59 144 -98
148 -213 13 -296 -197 -425 -718 -442 -387 -12 -675 39 -816 145 -97 74 -148
165 -184 332 -28 124 -19 120 -264 120 -217 -1 -226 -3 -246 -55 -13 -33 2
-195 26 -289 19 -74 80 -207 125 -272 149 -217 443 -367 839 -429 163 -26 569
-31 748 -11 243 28 446 89 618 186 95 54 252 205 303 292 132 227 145 580 29
801 -42 80 -154 193 -239 240 -202 113 -415 166 -979 247 -662 94 -805 142
-841 283 -15 60 -6 154 20 212 43 98 158 171 324 207 119 25 429 35 585 19
350 -37 500 -147 587 -433 17 -56 33 -92 45 -98 11 -6 104 -10 220 -10 l201 0
26 26 c24 25 25 29 19 100 -15 168 -82 354 -170 477 -158 222 -452 365 -836
406 -106 12 -400 21 -470 15z"/>
</g>
</svg>