<svg version="1.0" xmlns="http://www.w3.org/2000/svg"
 width="225.000000pt" height="225.000000pt" viewBox="0 0 225.000000 225.000000"
 preserveAspectRatio="xMidYMid meet">
<metadata>
Created by potrace 1.16, written by Peter Selinger 2001-2019
</metadata>
<g transform="translate(0.000000,225.000000) scale(0.100000,-0.100000)"
fill="#000000" stroke="none">
<path d="M1445 2234 c-116 -21 -106 -20 -207 -10 -101 10 -192 -3 -284 -40
l-60 -24 -100 27 c-83 22 -122 26 -239 27 -122 1 -149 -2 -207 -22 -167 -58
-265 -185 -297 -383 -23 -139 -12 -234 59 -519 98 -391 215 -627 343 -689 55
-27 126 -27 176 -1 l39 19 70 -36 c66 -34 78 -36 159 -36 57 0 100 5 124 15
l35 15 12 -151 c17 -229 65 -344 167 -396 95 -48 263 -26 368 49 103 75 145
187 175 476 l7 70 95 6 c128 9 216 44 287 115 60 60 73 101 50 157 -29 68 -71
80 -204 60 -35 -5 -63 -8 -63 -7 0 2 24 51 54 111 149 296 223 557 214 749 -6
119 -28 164 -120 249 -78 72 -191 134 -293 160 -89 24 -253 27 -360 9z m345
-69 c95 -25 194 -81 260 -146 81 -80 93 -109 92 -234 -1 -208 -109 -530 -265
-795 -38 -63 -43 -76 -29 -84 14 -8 133 -3 228 10 30 4 45 2 57 -11 25 -24 21
-40 -20 -86 -71 -79 -217 -128 -344 -116 -41 3 -59 2 -59 -6 -1 -35 -50 -371
-60 -408 -34 -127 -108 -192 -247 -219 -120 -24 -194 6 -251 100 -46 78 -50
102 -54 317 -2 106 -5 192 -8 190 -84 -48 -129 -62 -205 -61 -104 1 -168 31
-188 87 -11 29 26 54 109 73 62 15 85 26 113 53 l34 35 -49 14 c-27 7 -58 16
-69 18 -15 4 -42 -20 -119 -106 -133 -150 -169 -170 -249 -136 -108 44 -237
333 -333 741 -50 212 -43 440 17 556 27 54 93 125 144 154 118 70 356 72 550
5 50 -17 59 -18 79 -5 74 48 217 72 335 54 60 -8 88 -8 114 0 97 32 309 35
417 6z"/>
<path d="M1497 2121 c-38 -8 -61 -21 -38 -21 27 0 152 -93 208 -154 67 -73
114 -149 150 -238 24 -59 25 -69 18 -168 -9 -112 -9 -126 -4 -320 2 -109 0
-132 -19 -179 -23 -58 -22 -77 3 -45 33 41 166 324 194 414 59 183 85 374 62
455 -24 87 -154 196 -280 236 -72 22 -232 33 -294 20z"/>
<path d="M1038 2081 c-99 -32 -173 -93 -216 -178 -28 -53 -68 -188 -76 -251
l-7 -53 30 16 c17 8 60 22 97 30 59 14 71 14 118 1 57 -17 88 -43 110 -96 16
-40 36 -169 36 -236 0 -66 -26 -183 -59 -262 -16 -38 -32 -84 -36 -101 -6 -29
-5 -31 24 -31 20 0 42 -10 63 -29 l33 -29 6 -285 5 -285 32 -65 c27 -54 40
-69 75 -86 24 -12 57 -21 73 -21 51 0 147 30 181 56 62 47 71 81 113 401 l38
295 32 33 32 33 -20 30 c-22 31 -151 287 -170 337 -20 52 -42 152 -42 186 0
50 36 115 78 141 27 16 58 24 114 28 l76 5 -46 85 c-59 107 -179 231 -269 278
-130 68 -307 90 -425 53z"/>
<path d="M383 2071 c-135 -46 -203 -154 -219 -344 -8 -101 5 -191 58 -407 109
-446 240 -673 346 -599 10 8 61 60 111 117 l92 102 -35 42 c-70 81 -74 108
-71 418 2 241 5 285 24 353 26 98 69 190 115 244 l36 41 -47 15 c-132 42 -318
50 -410 18z"/>
<path d="M1626 1585 c-16 -9 -35 -23 -42 -33 -18 -24 -17 -108 2 -173 16 -54
91 -209 137 -283 24 -39 25 -39 33 -15 5 13 9 121 9 239 0 118 5 230 9 248 l9
32 -64 0 c-38 0 -76 -6 -93 -15z"/>
<path d="M853 1576 c-23 -8 -57 -23 -75 -34 l-34 -21 0 -214 1 -214 30 -49
c34 -54 101 -101 156 -110 l34 -6 48 120 c62 157 73 219 58 338 -16 131 -29
165 -71 186 -41 21 -88 22 -147 4z"/>
<path d="M1765 858 c-27 -15 -35 -28 -35 -60 0 -21 6 -29 26 -34 69 -18 234
19 293 65 24 18 24 18 -35 9 -72 -12 -153 -5 -196 16 -17 9 -32 16 -32 16 -1
0 -10 -6 -21 -12z"/>
<path d="M988 808 c-58 -71 -63 -74 -140 -95 -85 -22 -68 -36 42 -37 64 -1 82
3 122 27 53 31 78 61 78 94 0 23 -31 63 -49 63 -5 0 -29 -24 -53 -52z"/>
</g>
</svg>